<?xml version="1.0" encoding="UTF-8"?>
<svg id="Layer_2" xmlns="http://www.w3.org/2000/svg" viewBox="0 0 15.04 16" fill="none">
    <defs>
        <style>.cls-1{fill:#bdbdbd;}.cls-1,.cls-2{stroke-width:0px;}.cls-2{fill:#ff3621;}</style>
    </defs>
    <g id="Layer_1-2">
        <polygon class="cls-2"
            points="12.44 9.96 13.23 10.42 14.25 9.83 14.25 11.01 15.04 11.46 15.04 8.91 14.65 8.69 12.44 9.96" />
        <polygon class="cls-2"
            points="7.52 12.8 .79 8.91 .79 7.54 7.52 11.43 7.52 10.51 .4 6.4 0 6.63 0 9.37 7.52 13.71 7.52 12.8" />
        <polygon class="cls-2" points="7.52 15.08 .4 10.97 0 11.2 0 11.66 7.52 16 7.52 15.08" />
        <polygon class="cls-2"
            points="7.52 8.23 1.19 4.57 7.52 .91 12.67 3.89 13.06 3.66 13.06 3.2 7.52 0 0 4.34 0 4.8 7.52 9.14 7.52 8.23" />
        <polygon class="cls-2"
            points="9.27 8.13 14.25 5.26 14.25 6.63 10.46 8.82 11.25 9.27 15.04 7.09 15.04 4.34 15.04 4.34 14.65 4.11 8.48 7.67 9.27 8.13" />
        <polygon class="cls-1" points="14.67 12.43 8.54 8.89 8.54 15.97 14.67 12.43" />
    </g>
</svg>
