<svg width="16" height="16" viewBox="0 0 16 16" fill="none" xmlns="http://www.w3.org/2000/svg">
<path d="M4.99977 6.00002C5.55205 6.00002 5.99977 5.5523 5.99977 5.00002C5.99977 4.44773 5.55205 4.00002 4.99977 4.00002C4.44749 4.00002 3.99977 4.44773 3.99977 5.00002C3.99977 5.5523 4.44749 6.00002 4.99977 6.00002Z" fill="#cccccc"/>
<path fill-rule="evenodd" clip-rule="evenodd" d="M1.76758 1.01782C1.56866 1.01782 1.3779 1.09684 1.23725 1.23749C1.09659 1.37814 1.01758 1.56891 1.01758 1.76782L1.01759 7.86834C1.01759 8.06725 1.0966 8.25801 1.23726 8.39866L8.1218 15.2832C8.41469 15.5761 8.88957 15.5761 9.18246 15.2832L15.283 9.18271C15.5759 8.88981 15.5759 8.41494 15.283 8.12205L8.39842 1.2375C8.25777 1.09685 8.067 1.01783 7.86809 1.01783L1.76758 1.01782ZM8.65213 13.6922L2.51759 7.55767L2.51758 2.51782L7.55743 2.51783L13.692 8.65238L8.65213 13.6922Z" fill="#cccccc"/>
</svg>
